<?xml version="1.0" encoding="UTF-8" standalone="no"?>
<!-- Created with Inkscape (http://www.inkscape.org/) -->

<svg
   xmlns:dc="http://purl.org/dc/elements/1.1/"
   xmlns:cc="http://creativecommons.org/ns#"
   xmlns:rdf="http://www.w3.org/1999/02/22-rdf-syntax-ns#"
   xmlns:svg="http://www.w3.org/2000/svg"
   xmlns="http://www.w3.org/2000/svg"
   xmlns:sodipodi="http://sodipodi.sourceforge.net/DTD/sodipodi-0.dtd"
   xmlns:inkscape="http://www.inkscape.org/namespaces/inkscape"
   width="1000"
   height="972.36615"
   viewBox="0 0 264.58333 257.27189"
   version="1.1"
   id="svg8"
   inkscape:version="0.92.4 (5da689c313, 2019-01-14)"
   sodipodi:docname="A.svg">
  <defs
     id="defs2" />
  <sodipodi:namedview
     id="base"
     pagecolor="#ffffff"
     bordercolor="#666666"
     borderopacity="1.0"
     inkscape:pageopacity="0.82352941"
     inkscape:pageshadow="2"
     inkscape:zoom="0.175"
     inkscape:cx="1081.607"
     inkscape:cy="-614.64751"
     inkscape:document-units="px"
     inkscape:current-layer="layer1"
     showgrid="false"
     units="px"
     inkscape:window-width="1920"
     inkscape:window-height="1017"
     inkscape:window-x="1912"
     inkscape:window-y="-8"
     inkscape:window-maximized="1"
     inkscape:pagecheckerboard="true"
     fit-margin-top="0"
     fit-margin-left="0"
     fit-margin-right="0"
     fit-margin-bottom="0">
    <inkscape:grid
       type="xygrid"
       id="grid56850"
       originx="35.645348"
       originy="-268.68908" />
  </sodipodi:namedview>
  <metadata
     id="metadata5">
    <rdf:RDF>
      <cc:Work
         rdf:about="">
        <dc:format>image/svg+xml</dc:format>
        <dc:type
           rdf:resource="http://purl.org/dc/dcmitype/StillImage" />
        <dc:title></dc:title>
      </cc:Work>
    </rdf:RDF>
  </metadata>
  <g
     inkscape:label="Layer 1"
     inkscape:groupmode="layer"
     id="layer1"
     transform="translate(35.645351,228.96096)">
    <path
       d="M 228.86182,-93.394379 96.722469,-228.96096 -35.645351,-93.318213 H 4.719992 V 28.310919 H 188.57264 V -93.394379 h 40.36535 z"
       id="path57157"
       inkscape:connector-curvature="0"
       style="fill:#d92228;stroke-width:7.61610126" />
    <path
       d="m 147.14106,-128.8854 a 22.086692,22.086692 0 0 0 -15.76531,-5.33126 c -11.04335,0 -18.05017,4.56966 -22.8483,8.53002 l -0.0748,0.0748 a 57.273078,57.273078 0 0 0 -14.851414,23.07677 l 0.304548,-12.41422 0.227404,-13.32818 c 0,-1.52332 -1.066206,-3.04646 -3.351094,-3.04646 H 47.827246 v 3.65572 l 1.142488,0.0748 c 3.503396,0.30454 6.85449,0.60938 9.900921,2.81807 2.665515,1.82787 4.265026,4.34119 4.798158,7.61609 0.913932,3.65573 0.913932,14.62292 0.913932,19.344909 v 62.223547 c 0,6.397525 -0.227404,15.07988 -1.142487,20.868106 -1.751584,5.7120903 -3.579563,7.4637887 -7.311457,9.3678186 a 25.894742,25.894742 0 0 1 -7.692257,1.9801382 l -1.21848,0.074842 V 0.35593881 H 111.42178 V -3.2997895 l -1.14249,-0.074842 c -2.58952,-0.2274036 -4.56966,-0.609384 -7.15915,-1.7515832 -1.90386,-0.6853771 -3.579565,-2.4372482 -5.331264,-5.6358953 -2.513241,-5.407455 -4.112694,-11.500316 -4.112694,-26.275561 v -25.894733 c 0,-7.920754 0.380829,-15.460679 0.609384,-18.811773 2.894099,-20.715803 14.165944,-37.318883 21.477404,-37.318883 2.81808,0 4.56966,3.04643 6.62599,7.92072 2.28469,5.55976 5.63593,11.500321 15.23221,11.500321 9.36779,0 14.31828,-7.920751 14.31828,-15.841481 0.0748,-5.33129 -1.52331,-9.74862 -4.79816,-13.40435 z"
       id="path57159"
       inkscape:connector-curvature="0"
       style="fill:#ffffff;stroke-width:7.61610126" />
  </g>
</svg>
